<svg width="165" height="71.173" xmlns="http://www.w3.org/2000/svg" viewBox="0 0 165 71.173">
    <path d="M44.8478,70.5972H33.7259c0.3047-10.1.393-20.4805,0.393-25.4175H14.3119c0,5.712.1308,16.0906,0.393,25.4175H3.583q0.51-12.9691.5109-26.7632,0-13.9509-.5109-24.4052H14.7049c-0.3144,7.3626-.4716,18.4634-0.4716,24.7249H34.1976c0-5.5279-.1572-16.6292-0.4716-24.7249H44.8478q-0.5508,9.9827-.55,24.4052Q44.2976,58.8864,44.8478,70.5972Z" transform="translate(-0.625 -0.4853)" fill="#184a94"/>
    <path d="M91.1839,61.283L90.5158,70.322a47.16,47.16,0,0,1-11.004,1.3363q-13.48,0-20.5342-7.4473a25.3485,25.3485,0,0,1-7.0544-18.0976A27.5309,27.5309,0,0,1,59.41,26.8957q7.4865-8.1737,20.5342-8.1743a51.5964,51.5964,0,0,1,10.82,1.4985l0.4289,8.4351c-3.0918-.9953-9.3128-1.3913-12.1423-1.3913-5.319,0-9.5608,1.8266-12.1545,5.1929a19.5241,19.5241,0,0,0-3.8907,12.2813A19.1291,19.1291,0,0,0,67.6237,57.55q4.6174,5.4235,12.9493,5.4234A37.7429,37.7429,0,0,0,91.1839,61.283Z" transform="translate(-0.625 -0.4853)" fill="#184a94"/>
    <path d="M146.8293,70.5972H134.2533q0-2.5939-3.5763-14.6982H112.5205q-3.6945,11.9079-3.6941,14.6982H96.9971q0-1.5328,9.1765-25.152T115.35,19.4288h14.8553q0,2.24,8.312,25.643T146.8293,70.5972ZM128.6728,48.3928q-6.72-20.2789-6.72-21.9294h-0.6288q0,1.5328-6.9561,21.9294h14.3051Z" transform="translate(-0.625 -0.4853)" fill="#184a94"/>
    <path d="M164.3947,70.5972H153.8231q0.55-8.1351.55-18.6675a110.5413,110.5413,0,0,0-1.3362-18.3137l11.3184-1.14q-0.5112,7.6248-.5109,19.4534Q163.8445,62.03,164.3947,70.5972Z" transform="translate(-0.625 -0.4853)" fill="#184a94"/>
    <path d="M0.625,51.8652V59.498C13.4161,48.1348,25.9636,44.0221,47.5907,48.91V38.2357C25.6394,35.4307,12.3289,42.4562.625,51.8652Z" transform="translate(-0.625 -0.4853)" fill="#b32c34"/>
    <circle cx="140.8842" cy="12.4287" r="5.6262" fill="#c73341"/>
    <circle cx="124.9131" cy="5.395" r="3.9928" fill="#d93b52"/>
    <circle cx="110.2124" cy="3.0853" r="3.0853" fill="#ea4c6b"/>
    <circle cx="97.2111" cy="3.2557" r="2.3594" fill="#ef6586"/>
    <circle cx="86.7267" cy="5.8692" r="2.0533" transform="translate(20.6265 62.5588) rotate(-45)" fill="#f382a2"/>
    <circle cx="76.1507" cy="9.136" r="1.6683" transform="translate(15.2189 56.0373) rotate(-45)" fill="#f59bb8"/>
    <circle cx="67.4392" cy="12.7769" r="1.155" transform="translate(10.0928 50.9437) rotate(-45)" fill="#f3bed2"/>
    <circle cx="157.7801" cy="22.0556" r="7.2199" fill="#c73341"/>
</svg>